<svg xmlns="http://www.w3.org/2000/svg" xmlns:xlink="http://www.w3.org/1999/xlink" width="68" height="68" viewBox="0 0 68 68"><defs><style>.a{fill:#2fb640;}.b{fill:#fff;}.c{filter:url(#a);}</style><filter id="a" x="0" y="0" width="68" height="68" filterUnits="userSpaceOnUse"><feOffset dy="1" input="SourceAlpha"/><feGaussianBlur stdDeviation="1.5" result="b"/><feFlood flood-color="#0c0c0c" flood-opacity="0.341"/><feComposite operator="in" in2="b"/><feComposite in="SourceGraphic"/></filter></defs><g transform="translate(-255.5 -483.5)"><g class="c" transform="matrix(1, 0, 0, 1, 255.5, 483.5)"><path class="a" d="M29.5,0A29.5,29.5,0,1,1,0,29.5,29.5,29.5,0,0,1,29.5,0Z" transform="translate(4.5 3.5)"/></g><g transform="translate(274.928 501.928)"><path class="b" d="M42.479,24.9a14.728,14.728,0,0,1-3.073,9.443,14.253,14.253,0,0,1-8.578,5.3,14.433,14.433,0,0,1-7.937-.629,12.248,12.248,0,0,1-1.676-.756.545.545,0,0,0-.484-.042q-3.675,1.189-7.362,2.359c-.109.036-.254.139-.339.06-.1-.1.024-.242.06-.357.49-1.458.98-2.922,1.476-4.38.3-.889.593-1.773.907-2.656a.646.646,0,0,0-.073-.617,14.02,14.02,0,0,1-1.41-3.394A14.512,14.512,0,0,1,24.572,11.353a14.451,14.451,0,0,1,12.493,2.795,14.562,14.562,0,0,1,4.5,6.255A15.706,15.706,0,0,1,42.479,24.9ZM16.72,36.985c1.5-.484,2.934-.944,4.356-1.41a.53.53,0,0,1,.5.061,10.3,10.3,0,0,0,1.736.907,11.623,11.623,0,0,0,6.122.865A12.1,12.1,0,0,0,40.023,25.848a12.087,12.087,0,0,0-10.811-12.42,11.713,11.713,0,0,0-7.441,1.67,12.067,12.067,0,0,0-5.735,11.966,11.6,11.6,0,0,0,2.015,5.185.52.52,0,0,1,.085.526c-.224.617-.423,1.24-.635,1.857C17.246,35.394,17,36.157,16.72,36.985Z" transform="translate(-12.993 -10.938)"/><path class="b" d="M141,136.966a4.349,4.349,0,0,1,1.5-3.364,1.336,1.336,0,0,1,1.119-.339,2.738,2.738,0,0,0,.544.03.645.645,0,0,1,.684.442c.405,1.053.8,2.105,1.192,3.164.133.363-.1.647-.29.907a7.829,7.829,0,0,1-.762.853c-.272.278-.309.436-.121.774a10.024,10.024,0,0,0,4.719,4.465c.073.03.145.073.218.109a.573.573,0,0,0,.738-.145c.387-.454.811-.871,1.168-1.349.236-.315.4-.369.756-.212,1.065.46,2.063,1.041,3.079,1.6a.472.472,0,0,1,.248.478c-.054,1.785-1.077,2.716-2.874,3.128a4.278,4.278,0,0,1-2.474-.309,13.935,13.935,0,0,1-4.646-2.517,17.032,17.032,0,0,1-2.831-3.212,12.21,12.21,0,0,1-1.615-2.892A4.933,4.933,0,0,1,141,136.966Z" transform="translate(-133.253 -125.849)"/></g></g></svg>